<?xml version="1.0" encoding="UTF-8"?><svg xmlns="http://www.w3.org/2000/svg" width="1020" height="780" viewBox="0 0 1020 780"><defs><marker id="arr" markerWidth="10" markerHeight="7" refX="9" refY="3.5" orient="auto"><polygon points="0 0,10 3.5,0 7" fill="#334155"/></marker><linearGradient id="titleGrad" x1="0" y1="0" x2="0" y2="1"><stop offset="0%" stop-color="#1e4a7a"/><stop offset="100%" stop-color="#1e3a5f"/></linearGradient></defs><rect width="100%" height="100%" fill="#ffffff"/><rect x="40" y="18" width="940" height="42" rx="14" fill="url(#titleGrad)" stroke="#16324f"/><text x="510" y="45" text-anchor="middle" fill="#ffffff" font-family="Arial,sans-serif" font-size="14" font-weight="700">API GATEWAY</text><rect x="55" y="165" width="42" height="28" rx="3" fill="#e2e8f0" stroke="#334155" stroke-width="1.5"/><rect x="60" y="169" width="32" height="18" fill="#ffffff" stroke="#334155"/><path d="M51 193 L101 193 L97 199 L55 199 Z" fill="#cbd5e1" stroke="#334155"/><rect x="55" y="205" width="18" height="28" rx="3" fill="#e2e8f0" stroke="#334155"/><text x="75" y="195" text-anchor="middle" font-family="Arial" font-size="9" font-weight="700">Web Users</text><g transform="translate(62.2,245.8) scale(0.8)"><circle cx="16" cy="8" r="7" fill="none" stroke="#334155" stroke-width="2"/><path d="M4 36 Q16 22 28 36" fill="none" stroke="#334155" stroke-width="2"/></g><g transform="translate(83.8,258.2) scale(0.7)"><circle cx="16" cy="8" r="7" fill="none" stroke="#334155" stroke-width="2"/><path d="M4 36 Q16 22 28 36" fill="none" stroke="#334155" stroke-width="2"/></g><g transform="translate(43.8,258.2) scale(0.7)"><circle cx="16" cy="8" r="7" fill="none" stroke="#334155" stroke-width="2"/><path d="M4 36 Q16 22 28 36" fill="none" stroke="#334155" stroke-width="2"/></g><text x="75" y="315" text-anchor="middle" font-family="Arial" font-size="9" font-weight="700">LGU Staff &amp; Trainers</text><g transform="translate(61.4,344.6) scale(0.85)"><circle cx="16" cy="8" r="7" fill="none" stroke="#334155" stroke-width="2"/><path d="M4 36 Q16 22 28 36" fill="none" stroke="#334155" stroke-width="2"/></g><rect x="65" y="350" width="20" height="8" fill="#fbbf24" stroke="#334155"/><text x="75" y="405" text-anchor="middle" font-family="Arial" font-size="9" font-weight="700">Responders</text><polygon points="215,251 245,275 245,303 215,319 185,303 185,275" fill="#ff9900" stroke="#c2410c" stroke-width="2"/><rect x="197" y="277" width="36" height="8" fill="#fff" opacity="0.9"/><rect x="197" y="289" width="36" height="8" fill="#fff" opacity="0.9"/><text x="215" y="340" text-anchor="middle" font-family="Arial" font-size="9" font-weight="700">API Gateway</text><line x1="110" y1="190" x2="180" y2="270" stroke="#334155" stroke-width="1.5" marker-end="url(#arr)"/><line x1="110" y1="280" x2="180" y2="285" stroke="#334155" stroke-width="1.5" marker-end="url(#arr)"/><line x1="110" y1="370" x2="180" y2="295" stroke="#334155" stroke-width="1.5" marker-end="url(#arr)"/><line x1="250" y1="285" x2="310" y2="285" stroke="#334155" stroke-width="2" marker-end="url(#arr)"/><text x="335" y="248" text-anchor="middle" font-family="Arial" font-size="8" font-weight="700">Authentication &amp; Authorization</text><ellipse cx="335" cy="289" rx="18" ry="6" fill="#94a3b8"/><rect x="317" y="265" width="36" height="24" fill="#dbeafe" stroke="#334155"/><ellipse cx="335" cy="265" rx="18" ry="6" fill="#dbeafe" stroke="#334155"/><polygon points="323,252 335,244 347,252 335,256" fill="#fbbf24" stroke="#334155"/><rect x="331" y="256" width="8" height="6" fill="#fbbf24" stroke="#334155"/><line x1="360" y1="285" x2="460" y2="285" stroke="#334155" stroke-width="2" marker-end="url(#arr)"/><text x="485" y="248" text-anchor="middle" font-family="Arial" font-size="8" font-weight="700">Disaster Training Management</text><ellipse cx="485" cy="289" rx="18" ry="6" fill="#94a3b8"/><rect x="467" y="265" width="36" height="24" fill="#dbeafe" stroke="#334155"/><ellipse cx="485" cy="265" rx="18" ry="6" fill="#dbeafe" stroke="#334155"/><circle cx="485" cy="258" r="8" fill="#ffffff" stroke="#334155" stroke-width="1.2"/><circle cx="485" cy="258" r="3" fill="none" stroke="#334155"/><text x="485" y="330" text-anchor="middle" font-family="Arial" font-size="8" fill="#475569">Training Database</text><line x1="510" y1="285" x2="610" y2="285" stroke="#334155" stroke-width="2" marker-end="url(#arr)"/><text x="635" y="248" text-anchor="middle" font-family="Arial" font-size="8" font-weight="700">Simulation Engine</text><ellipse cx="635" cy="289" rx="18" ry="6" fill="#94a3b8"/><rect x="617" y="265" width="36" height="24" fill="#fecaca" stroke="#334155"/><ellipse cx="635" cy="265" rx="18" ry="6" fill="#fecaca" stroke="#334155"/><text x="635" y="330" text-anchor="middle" font-family="Arial" font-size="8" fill="#475569">Simulation Results DB</text><line x1="660" y1="285" x2="760" y2="285" stroke="#334155" stroke-width="2" marker-end="url(#arr)"/><text x="785" y="248" text-anchor="middle" font-family="Arial" font-size="8" font-weight="700">AI Scenario Generation</text><ellipse cx="785" cy="275" rx="18" ry="14" fill="#fed7aa" stroke="#334155"/><path d="M775 275 q5-8 10 0 q5 8 10 0 q-2 6-10 4 q-8 2-10-4" fill="none" stroke="#7c3aed" stroke-width="1.5"/><text x="785" y="330" text-anchor="middle" font-family="Arial" font-size="8" fill="#475569">Gemini AI API</text><line x1="810" y1="285" x2="910" y2="285" stroke="#334155" stroke-width="2" marker-end="url(#arr)"/><text x="935" y="248" text-anchor="middle" font-family="Arial" font-size="8" font-weight="700">Logging &amp; Monitoring</text><rect x="925" y="272" width="5" height="12" fill="#3b82f6"/><rect x="932" y="266" width="5" height="18" fill="#22c55e"/><rect x="939" y="269" width="5" height="15" fill="#f59e0b"/><circle cx="951" cy="260" r="9" fill="none" stroke="#334155" stroke-width="1.5"/><line x1="958" y1="267" x2="965" y2="274" stroke="#334155" stroke-width="1.5"/><text x="510" y="760" text-anchor="middle" font-family="Arial,sans-serif" font-size="12" font-style="italic" fill="#334155">Figure no. __ API Gateway</text></svg>